<?xml version="1.0" encoding="UTF-8"?>
<svg width="88px" height="19px" viewBox="0 0 88 19" version="1.1" xmlns="http://www.w3.org/2000/svg" xmlns:xlink="http://www.w3.org/1999/xlink">
    <!-- Generator: Sketch 52.2 (67145) - http://www.bohemiancoding.com/sketch -->
    <title>logo</title>
    <desc>Created with Sketch.</desc>
    <defs>
        <polygon id="path-1" points="0.246175269 0.368546371 14.0311723 0.368546371 14.0311723 14.1733871 0.246175269 14.1733871"></polygon>
    </defs>
    <g id="最终" stroke="none" stroke-width="1" fill="none" fill-rule="evenodd">
        <g id="Artboard">
            <g id="logo">
                <polygon id="Fill-1" fill="#B7B7B7" points="1.57415323 -0.000114919355 1.57415323 4.56141734 0 4.56141734 0 7.43478427 1.57415323 7.43478427 1.57415323 18.1617399 4.85392742 18.1617399 4.85392742 7.43478427 6.83632258 7.43478427 6.83632258 4.56141734 4.85392742 4.56141734 4.85392742 -0.000114919355"></polygon>
                <g id="Group-13" transform="translate(6.919355, 4.141081)">
                    <path d="M9.62124758,10.1663407 C10.3350944,9.40212702 10.6925944,8.45059476 10.6925944,7.31136089 C10.6925944,6.17289315 10.3350944,5.21753024 9.62124758,4.44565524 C8.90663199,3.67416331 8.01941694,3.28765121 6.95921801,3.28765121 C5.90632285,3.28765121 5.02295188,3.67416331 4.30910511,4.44565524 C3.59410511,5.21753024 3.23737392,6.17289315 3.23737392,7.31136089 C3.23737392,8.45059476 3.59410511,9.40212702 4.30910511,10.1663407 C5.02295188,10.9305544 5.90632285,11.3128528 6.95921801,11.3128528 C8.01941694,11.3128528 8.90663199,10.9305544 9.62124758,10.1663407 M2.13758091,12.127631 C0.810218011,10.8052923 0.147113172,9.19986895 0.147113172,7.31136089 C0.147113172,5.42323589 0.810218011,3.81436492 2.13758091,2.48436492 C3.464175,1.15436492 5.07177177,0.489364919 6.95921801,0.489364919 C8.85396801,0.489364919 10.4646401,1.15436492 11.792003,2.48436492 C13.1193659,3.81436492 13.7828551,5.42323589 13.7828551,7.31136089 C13.7828551,9.19986895 13.1193659,10.8052923 11.792003,12.127631 C10.4646401,13.4503528 8.85396801,14.1115222 6.95921801,14.1115222 C5.07177177,14.1115222 3.464175,13.4503528 2.13758091,12.127631" id="Fill-2" fill="#B7B7B7"></path>
                    <polygon id="Fill-4" fill="#B7B7B7" points="18.8252965 14.1006048 13.9352347 0.500282258 15.639318 0.500282258 17.3430169 0.500282258 20.0077374 9.04836694 20.0161944 9.04836694 22.2011728 0.500282258 23.4985519 0.500282258 24.7963153 0.500282258 26.9812938 9.04836694 26.9897508 9.04836694 29.6544712 0.500282258 31.3585546 0.500282258 33.0622535 0.500282258 28.1721917 14.1006048 27.1392858 14.1006048 26.105611 14.1006048 23.4977831 5.26522177 23.4997051 5.26522177 20.8914927 14.1006048 19.8585868 14.1006048"></polygon>
                    <path d="M34.4445099,0.679709677 L35.2975126,0.679709677 L36.162432,0.679709677 L36.162432,2.41575806 L36.4384374,2.08057661 C37.3836981,0.915294355 38.6933782,0.332653226 40.3674777,0.332653226 C42.2253245,0.332653226 43.6753137,0.90303629 44.7166766,2.04456855 C45.7576551,3.18610081 46.2785288,4.77428629 46.2785288,6.80950806 L46.2785288,14.1007581 L45.413225,14.1007581 L44.5483056,14.1007581 L44.5483056,6.761625 C44.5483056,5.23702823 44.1796578,4.04378226 43.4431309,3.1818871 C42.7058352,2.31999194 41.6806175,1.88904435 40.3674777,1.88904435 C39.0216632,1.88904435 37.9864508,2.3257379 37.2614562,3.19989113 C36.5364616,4.07366129 36.1743487,5.32091935 36.1743487,6.94128226 L36.1743487,14.1007581 L35.3094293,14.1007581 L34.4445099,14.1007581 L34.4445099,0.679709677 Z" id="Fill-6" fill="#B7B7B7"></path>
                    <g id="Group-10" transform="translate(47.282258, 0.000000)">
                        <mask id="mask-2" fill="white">
                            <use xlink:href="#path-1"></use>
                        </mask>
                        <g id="Clip-9"></g>
                        <path d="M12.2689387,6.39415121 C12.103643,5.24878831 11.6196726,4.26009879 10.816643,3.42846573 C9.81641183,2.38499798 8.58822634,1.86326411 7.13170215,1.86326411 C5.68286613,1.86326411 4.45429624,2.38882863 3.44676129,3.44034073 C2.66718065,4.26392944 2.18321022,5.24878831 1.99408118,6.39415121 L12.2689387,6.39415121 Z M7.13170215,14.1734254 C5.21081237,14.1734254 3.58245753,13.5065101 2.24817527,12.1726794 C0.913508602,10.8388488 0.246175269,9.20699395 0.246175269,7.27673185 C0.246175269,5.33880847 0.913508602,3.70312298 2.24817527,2.36929234 C3.58245753,1.03546169 5.21081237,0.368546371 7.13170215,0.368546371 C9.06835269,0.368546371 10.7020892,1.03546169 12.0329118,2.36929234 C13.3637344,3.70312298 14.0287613,5.33880847 14.0287613,7.27673185 C14.0368339,7.48856653 14.0245328,7.70040121 13.9933957,7.91223589 L1.98216452,7.91223589 C2.10056237,9.14417137 2.59644946,10.2113891 3.47021022,11.113506 C4.48620215,12.1569738 5.72591989,12.6787077 7.19090108,12.6787077 C8.2376457,12.6787077 9.15676667,12.4159254 9.94864839,11.8903609 C10.7393769,11.3647964 11.3755731,10.5956028 11.8556995,9.58354637 L13.615522,9.58354637 C13.1430839,10.9564496 12.3119925,12.0650383 11.1237855,12.9081633 C9.93442527,13.7516714 8.6039871,14.1734254 7.13170215,14.1734254 Z" id="Fill-8" fill="#B7B7B7" mask="url(#mask-2)"></path>
                    </g>
                    <polygon id="Fill-11" fill="#B7B7B7" points="65.8913247 14.1158508 60.7129565 0.448491935 61.64015 0.448491935 62.5796446 0.448491935 66.8215935 12.0189556 66.8269753 12.0189556 69.9160828 2.09452016 70.6606823 2.09452016 71.4179672 2.09452016 74.5312925 11.9944395 74.5282172 11.9944395 78.7463328 0.448491935 79.6473866 0.448491935 80.5607414 0.448491935 75.3946742 14.1158508 74.4336527 14.1158508 73.4599457 14.1158508 70.6349269 4.86216129 70.6318516 4.86216129 67.8256688 14.1158508 66.8642629 14.1158508"></polygon>
                </g>
            </g>
        </g>
    </g>
</svg>