<?xml version="1.0" encoding="UTF-8"?>
<svg width="23px" height="23px" viewBox="0 0 23 23" version="1.1" xmlns="http://www.w3.org/2000/svg" xmlns:xlink="http://www.w3.org/1999/xlink">
    <!-- Generator: Sketch 52.2 (67145) - http://www.bohemiancoding.com/sketch -->
    <title>一对一售后服务</title>
    <desc>Created with Sketch.</desc>
    <g id="最终" stroke="none" stroke-width="1" fill="none" fill-rule="evenodd">
        <g id="T1产品" transform="translate(-1404.000000, -13314.000000)">
            <g id="Group-26" transform="translate(0.000000, 13192.000000)">
                <g id="一对一售后服务" transform="translate(1405.000000, 123.000000)">
                    <path d="M21,10.5 C21,16.299 16.299,21 10.5,21 C4.701,21 0,16.299 0,10.5 C0,4.701 4.701,0 10.5,0 C16.299,0 21,4.701 21,10.5 Z" id="Stroke-1" stroke="#FFFFFF" stroke-linecap="round" stroke-linejoin="round"></path>
                    <path d="M6.9,9.6 L6.9,8.7567 C6.9,6.9105 8.4321,5.4 10.305,5.4 L10.995,5.4 C12.8679,5.4 14.4,6.9105 14.4,8.7567 L14.4,9.6" id="Stroke-3" stroke="#FFFFFF"></path>
                    <path d="M7.5,12.6 L6.3,12.6 C5.97,12.6 5.7,12.33 5.7,12 L5.7,10.2 C5.7,9.87 5.97,9.6 6.3,9.6 L7.5,9.6 C7.83,9.6 8.1,9.87 8.1,10.2 L8.1,12 C8.1,12.33 7.83,12.6 7.5,12.6 Z" id="Stroke-5" stroke="#FFFFFF"></path>
                    <path d="M15,12.6 L13.8,12.6 C13.47,12.6 13.2,12.33 13.2,12 L13.2,10.2 C13.2,9.87 13.47,9.6 13.8,9.6 L15,9.6 C15.33,9.6 15.6,9.87 15.6,10.2 L15.6,12 C15.6,12.33 15.33,12.6 15,12.6 Z" id="Stroke-7" stroke="#FFFFFF"></path>
                    <path d="M6.97002,12.56688 C7.19832,14.02668 8.62752,15.16068 10.34292,15.16068 L11.10012,15.16068" id="Stroke-9" stroke="#FFFFFF"></path>
                    <path d="M12,15.16056 C12,15.56886 11.5299,15.90006 10.95,15.90006 C10.3701,15.90006 9.9,15.56886 9.9,15.16056 C9.9,14.75226 10.3701,14.42106 10.95,14.42106 C11.5299,14.42106 12,14.75226 12,15.16056" id="Fill-11" fill="#FFFFFF"></path>
                </g>
            </g>
        </g>
    </g>
</svg>