<?xml version="1.0" encoding="UTF-8"?>
<svg width="24px" height="19px" viewBox="0 0 24 19" version="1.1" xmlns="http://www.w3.org/2000/svg" xmlns:xlink="http://www.w3.org/1999/xlink">
    <!-- Generator: Sketch 52.2 (67145) - http://www.bohemiancoding.com/sketch -->
    <title>底部微信icon</title>
    <desc>Created with Sketch.</desc>
    <g id="最终" stroke="none" stroke-width="1" fill="none" fill-rule="evenodd">
        <g id="T1产品" transform="translate(-1383.000000, -13547.000000)" fill="#FFFFFF" fill-rule="nonzero">
            <g id="Group-26" transform="translate(0.000000, 13192.000000)">
                <g id="底部微信icon" transform="translate(1383.000000, 354.500000)">
                    <path d="M23.5948361,12.8114508 C23.5948361,9.58699194 20.3164167,6.9612711 16.628318,6.9612711 C12.7208364,6.9612711 9.65243297,9.58699194 9.65243297,12.8114508 C9.65243297,16.0441515 12.7208364,18.660661 16.628318,18.660661 C17.4457044,18.660661 18.2724577,18.4555871 19.0893511,18.2597246 L21.3413541,19.4736842 L20.7251099,17.4559128 C22.3682636,16.2414684 23.5948361,14.6251181 23.5948361,12.8114508 Z M14.3654691,11.8020803 C13.9577619,11.8020803 13.5490687,11.4006592 13.5490687,10.9977836 C13.5490687,10.5973321 13.9577619,10.1949413 14.3654691,10.1949413 C14.9836853,10.1949413 15.3928715,10.5973321 15.3928715,10.9977836 C15.3928715,11.4006592 14.9836853,11.8020803 14.3654691,11.8020803 Z M18.880814,11.8020803 C18.4726138,11.8020803 18.0649066,11.4006592 18.0649066,10.9977836 C18.0649066,10.5973321 18.4726138,10.1949413 18.880814,10.1949413 C19.4980443,10.1949413 19.9072305,10.5973321 19.9072305,10.9977836 C19.9072305,11.4006592 19.4881844,11.8020803 18.880814,11.8020803 Z" id="Shape"></path>
                    <path d="M15.9970189,6.25019158 C16.2653096,6.25019158 16.5345849,6.26857145 16.8023833,6.29565755 C16.0807059,2.9824457 12.4782261,0.526315789 8.36427091,0.526315789 C3.76985385,0.526315789 -9.09494702e-13,3.6020405 -9.09494702e-13,7.51501624 C-9.09494702e-13,9.77235343 1.25087472,11.6282358 3.34403462,13.0667017 L2.51061042,15.5412115 L5.43719454,14.0950066 C6.4837745,14.2947667 7.32655195,14.5046841 8.36427093,14.5046841 C8.62320839,14.5046841 8.8836227,14.4954941 9.14305243,14.4693754 C8.97617068,13.9223327 8.88362268,13.3414323 8.88362268,12.7489236 C8.88313041,9.16243225 12.0238548,6.25019158 15.9970189,6.25019158 Z M11.4946575,4.02042418 C12.1242792,4.02042418 12.5407452,4.43010161 12.5407452,5.04921274 C12.5407452,5.6673565 12.123787,6.07703392 11.4946575,6.07703392 C10.8645435,6.07703392 10.2354141,5.6673565 10.2354141,5.04921274 C10.2447674,4.42961793 10.8734045,4.02042418 11.4946575,4.02042418 Z M5.64099703,6.07606658 C5.01088304,6.07606658 4.3817536,5.66687282 4.3817536,5.04824539 C4.3817536,4.42913426 5.01137531,4.0199405 5.64099703,4.0199405 C6.2716033,4.0199405 6.68856153,4.42961793 6.68856153,5.04824539 C6.68806926,5.65816657 6.2716033,6.07606658 5.64099703,6.07606658 Z" id="Shape"></path>
                </g>
            </g>
        </g>
    </g>
</svg>