<?xml version="1.0" encoding="UTF-8"?>
<svg width="104px" height="104px" viewBox="0 0 104 104" version="1.1" xmlns="http://www.w3.org/2000/svg" xmlns:xlink="http://www.w3.org/1999/xlink">
    <!-- Generator: Sketch 52.2 (67145) - http://www.bohemiancoding.com/sketch -->
    <title>15.5L大容量桶身</title>
    <desc>Created with Sketch.</desc>
    <defs>
        <polygon id="path-1" points="0 104 104 104 104 0 0 0"></polygon>
    </defs>
    <g id="最终" stroke="none" stroke-width="1" fill="none" fill-rule="evenodd">
        <g id="T1产品" transform="translate(-1182.000000, -2488.000000)">
            <g id="图标" transform="translate(0.000000, 2138.000000)">
                <g id="15.5L大容量桶身" transform="translate(1182.000000, 350.000000)">
                    <path d="M52,0 C23.281,0 0,23.281 0,52 C0,80.719 23.281,104 52,104 C80.719,104 104,80.719 104,52 C104,23.281 80.719,0 52,0 M52,0.5 C80.397,0.5 103.5,23.603 103.5,52 C103.5,80.397 80.397,103.5 52,103.5 C23.603,103.5 0.5,80.397 0.5,52 C0.5,23.603 23.603,0.5 52,0.5" id="Fill-1" fill="#333333"></path>
                    <path d="M63.2246,44.7891 L70.2566,36.9851 C70.8706,36.3051 71.9996,36.7381 71.9996,37.6541 L71.9996,76.0001 L32.9996,76.0001 L32.9996,37.6541 C32.9996,36.7381 34.1296,36.3051 34.7436,36.9851 L41.7756,44.7891" id="Stroke-3" stroke="#333333" stroke-width="4" stroke-linecap="round" stroke-linejoin="round"></path>
                    <polyline id="Stroke-5" stroke="#333333" stroke-width="4" stroke-linecap="round" stroke-linejoin="round" points="63.2246 68.0527 71.9996 75.9997 32.9996 75.9997 41.7756 68.0527"></polyline>
                    <path d="M33,28 L72,28" id="Stroke-7" stroke="#333333" stroke-width="4" stroke-linecap="round" stroke-linejoin="round"></path>
                    <path d="M40.5,61.5 L39.5,61.5 L39.5,54.032 C39.259,54.302 38.943,54.57 38.553,54.84 C38.162,55.109 37.812,55.311 37.5,55.445 L37.5,54 C38.06,53.679 38.548,53.289 38.967,52.831 C39.385,52.374 39.682,51.931 39.855,51.5 L40.5,51.5 L40.5,61.5 Z" id="Fill-9" fill="#333333"></path>
                    <path d="M40.5,61.5 L39.5,61.5 L39.5,54.032 C39.259,54.302 38.943,54.57 38.553,54.84 C38.162,55.109 37.812,55.311 37.5,55.445 L37.5,54 C38.06,53.679 38.548,53.289 38.967,52.831 C39.385,52.374 39.682,51.931 39.855,51.5 L40.5,51.5 L40.5,61.5 Z" id="Stroke-11" stroke="#333333" stroke-linejoin="round"></path>
                    <path d="M43.5107,58.998 L44.5557,58.899 C44.6327,59.463 44.8127,59.886 45.0937,60.169 C45.3757,60.453 45.7157,60.595 46.1137,60.595 C46.5917,60.595 46.9967,60.394 47.3287,59.995 C47.6597,59.595 47.8257,59.064 47.8257,58.404 C47.8257,57.776 47.6667,57.28 47.3477,56.917 C47.0297,56.555 46.6127,56.373 46.0967,56.373 C45.7767,56.373 45.4877,56.453 45.2297,56.614 C44.9717,56.775 44.7687,56.984 44.6217,57.241 L43.6877,57.107 L44.4727,52.5 L48.4997,52.5 L48.4997,53.553 L45.2677,53.553 L44.8317,55.963 C45.3177,55.588 45.8277,55.4 46.3627,55.4 C47.0697,55.4 47.6657,55.671 48.1527,56.214 C48.6377,56.756 48.8807,57.454 48.8807,58.307 C48.8807,59.118 48.6677,59.819 48.2397,60.411 C47.7207,61.137 47.0117,61.5 46.1137,61.5 C45.3767,61.5 44.7757,61.271 44.3097,60.814 C43.8437,60.358 43.5767,59.752 43.5107,58.998" id="Fill-13" fill="#333333"></path>
                    <path d="M43.5107,58.998 L44.5557,58.899 C44.6327,59.463 44.8127,59.886 45.0937,60.169 C45.3757,60.453 45.7157,60.595 46.1137,60.595 C46.5917,60.595 46.9967,60.394 47.3287,59.995 C47.6597,59.595 47.8257,59.064 47.8257,58.404 C47.8257,57.776 47.6667,57.28 47.3477,56.917 C47.0297,56.555 46.6127,56.373 46.0967,56.373 C45.7767,56.373 45.4877,56.453 45.2297,56.614 C44.9717,56.775 44.7687,56.984 44.6217,57.241 L43.6877,57.107 L44.4727,52.5 L48.4997,52.5 L48.4997,53.553 L45.2677,53.553 L44.8317,55.963 C45.3177,55.588 45.8277,55.4 46.3627,55.4 C47.0697,55.4 47.6657,55.671 48.1527,56.214 C48.6377,56.756 48.8807,57.454 48.8807,58.307 C48.8807,59.118 48.6677,59.819 48.2397,60.411 C47.7207,61.137 47.0117,61.5 46.1137,61.5 C45.3767,61.5 44.7757,61.271 44.3097,60.814 C43.8437,60.358 43.5767,59.752 43.5107,58.998 Z" id="Stroke-15" stroke="#333333" stroke-linejoin="round"></path>
                    <mask id="mask-2" fill="white">
                        <use xlink:href="#path-1"></use>
                    </mask>
                    <g id="Clip-18"></g>
                    <polygon id="Fill-17" fill="#333333" mask="url(#mask-2)" points="51 61.5 52 61.5 52 60.5 51 60.5"></polygon>
                    <polygon id="Stroke-19" stroke="#333333" stroke-linejoin="round" mask="url(#mask-2)" points="51 61.5 52 61.5 52 60.5 51 60.5"></polygon>
                    <path d="M54.1113,58.998 L55.1553,58.899 C55.2323,59.463 55.4123,59.886 55.6943,60.169 C55.9753,60.453 56.3153,60.595 56.7133,60.595 C57.1923,60.595 57.5973,60.394 57.9283,59.995 C58.2593,59.595 58.4253,59.064 58.4253,58.404 C58.4253,57.776 58.2663,57.28 57.9483,56.917 C57.6303,56.555 57.2123,56.373 56.6963,56.373 C56.3763,56.373 56.0873,56.453 55.8293,56.614 C55.5713,56.775 55.3693,56.984 55.2213,57.241 L54.2883,57.107 L55.0723,52.5 L59.0993,52.5 L59.0993,53.553 L55.8683,53.553 L55.4313,55.963 C55.9183,55.588 56.4273,55.4 56.9623,55.4 C57.6693,55.4 58.2653,55.671 58.7523,56.214 C59.2383,56.756 59.4813,57.454 59.4813,58.307 C59.4813,59.118 59.2673,59.819 58.8403,60.411 C58.3213,61.137 57.6123,61.5 56.7133,61.5 C55.9763,61.5 55.3753,61.271 54.9093,60.814 C54.4433,60.358 54.1773,59.752 54.1113,58.998" id="Fill-20" fill="#333333" mask="url(#mask-2)"></path>
                    <path d="M54.1113,58.998 L55.1553,58.899 C55.2323,59.463 55.4123,59.886 55.6943,60.169 C55.9753,60.453 56.3153,60.595 56.7133,60.595 C57.1923,60.595 57.5973,60.394 57.9283,59.995 C58.2593,59.595 58.4253,59.064 58.4253,58.404 C58.4253,57.776 58.2663,57.28 57.9483,56.917 C57.6303,56.555 57.2123,56.373 56.6963,56.373 C56.3763,56.373 56.0873,56.453 55.8293,56.614 C55.5713,56.775 55.3693,56.984 55.2213,57.241 L54.2883,57.107 L55.0723,52.5 L59.0993,52.5 L59.0993,53.553 L55.8683,53.553 L55.4313,55.963 C55.9183,55.588 56.4273,55.4 56.9623,55.4 C57.6693,55.4 58.2653,55.671 58.7523,56.214 C59.2383,56.756 59.4813,57.454 59.4813,58.307 C59.4813,59.118 59.2673,59.819 58.8403,60.411 C58.3213,61.137 57.6123,61.5 56.7133,61.5 C55.9763,61.5 55.3753,61.271 54.9093,60.814 C54.4433,60.358 54.1773,59.752 54.1113,58.998 Z" id="Stroke-21" stroke="#333333" stroke-linejoin="round" mask="url(#mask-2)"></path>
                    <polygon id="Fill-22" fill="#333333" mask="url(#mask-2)" points="62.5 61 62.5 52.5 63.5 52.5 63.5 60.056 67.5 60.056 67.5 61"></polygon>
                    <polygon id="Stroke-23" stroke="#333333" stroke-linecap="round" stroke-linejoin="round" mask="url(#mask-2)" points="62.5 61 62.5 52.5 63.5 52.5 63.5 60.056 67.5 60.056 67.5 61"></polygon>
                </g>
            </g>
        </g>
    </g>
</svg>