<?xml version="1.0" encoding="UTF-8"?>
<svg width="104px" height="104px" viewBox="0 0 104 104" version="1.1" xmlns="http://www.w3.org/2000/svg" xmlns:xlink="http://www.w3.org/1999/xlink">
    <!-- Generator: Sketch 52.2 (67145) - http://www.bohemiancoding.com/sketch -->
    <title>一键打包</title>
    <desc>Created with Sketch.</desc>
    <g id="最终" stroke="none" stroke-width="1" fill="none" fill-rule="evenodd">
        <g id="T1产品" transform="translate(-360.000000, -2252.000000)">
            <g id="图标" transform="translate(0.000000, 2138.000000)">
                <g id="一键打包" transform="translate(360.000000, 114.000000)">
                    <path d="M52,0 C23.281,0 0,23.281 0,52 C0,80.719 23.281,104 52,104 C80.719,104 104,80.719 104,52 C104,23.281 80.719,0 52,0 M52,0.5 C80.397,0.5 103.5,23.603 103.5,52 C103.5,80.397 80.397,103.5 52,103.5 C23.603,103.5 0.5,80.397 0.5,52 C0.5,23.603 23.603,0.5 52,0.5" id="Fill-1" fill="#333333"></path>
                    <path d="M54.75,35 L52,35 L49.75,35 L44.178,37.413 C35.571,41.141 30,49.625 30,59.004 L30,68.808 C30,72.78 33.22,76 37.192,76 L67.255,76 C70.98,76 74,72.98 74,69.255 L74,58.964 C74,49.624 68.408,41.191 59.804,37.557 L54.75,35 Z" id="Stroke-3" stroke="#231815" stroke-width="4" stroke-linecap="round" stroke-linejoin="round"></path>
                    <polyline id="Stroke-5" stroke="#231815" stroke-width="4" stroke-linecap="round" stroke-linejoin="round" points="55 35 60 28 45 28 50 35"></polyline>
                    <g id="Group-10" transform="translate(32.000000, 30.000000)">
                        <polyline id="Fill-7" fill="#FFFFFF" points="0 3 10 3 7 0"></polyline>
                        <polyline id="Stroke-9" stroke="#231815" stroke-width="4" stroke-linecap="round" stroke-linejoin="round" points="0 3 10 3 7 0"></polyline>
                    </g>
                    <g id="Group-14" transform="translate(63.000000, 30.000000)">
                        <polyline id="Fill-11" fill="#FFFFFF" points="10 3 0 3 3 0"></polyline>
                        <polyline id="Stroke-13" stroke="#231815" stroke-width="4" stroke-linecap="round" stroke-linejoin="round" points="10 3 0 3 3 0"></polyline>
                    </g>
                </g>
            </g>
        </g>
    </g>
</svg>