<?xml version="1.0" encoding="UTF-8"?>
<svg width="104px" height="104px" viewBox="0 0 104 104" version="1.1" xmlns="http://www.w3.org/2000/svg" xmlns:xlink="http://www.w3.org/1999/xlink">
    <!-- Generator: Sketch 52.2 (67145) - http://www.bohemiancoding.com/sketch -->
    <title>温柔开合</title>
    <desc>Created with Sketch.</desc>
    <g id="最终" stroke="none" stroke-width="1" fill="none" fill-rule="evenodd">
        <g id="T1产品" transform="translate(-1456.000000, -2488.000000)">
            <g id="图标" transform="translate(0.000000, 2138.000000)">
                <g id="温柔开合" transform="translate(1456.000000, 350.000000)">
                    <path d="M52,0 C23.281,0 0,23.281 0,52 C0,80.719 23.281,104 52,104 C80.719,104 104,80.719 104,52 C104,23.281 80.719,0 52,0 M52,0.5 C80.397,0.5 103.5,23.603 103.5,52 C103.5,80.397 80.397,103.5 52,103.5 C23.603,103.5 0.5,80.397 0.5,52 C0.5,23.603 23.603,0.5 52,0.5" id="Fill-1" fill="#333333"></path>
                    <path d="M45.4795,48.5625 C45.4795,48.5625 47.1595,50.5625 51.3575,50.5625 C55.8795,50.5625 57.0895,46.8125 61.2255,46.8125 C65.2145,46.8125 67.1045,50.5625 67.1045,50.5625" id="Stroke-3" stroke="#333333" stroke-width="4" stroke-linecap="round" stroke-linejoin="round"></path>
                    <path d="M45.4795,59.0625 C45.4795,59.0625 47.1595,61.0625 51.3575,61.0625 C55.5565,61.0625 57.4465,57.3125 61.2255,57.3125 C65.2145,57.3125 67.1045,61.0625 67.1045,61.0625" id="Stroke-5" stroke="#333333" stroke-width="4" stroke-linecap="round" stroke-linejoin="round"></path>
                    <path d="M28,71 L76,71" id="Stroke-7" stroke="#333333" stroke-width="4" stroke-linecap="round" stroke-linejoin="round"></path>
                    <path d="M43.502,33.582 L28,71" id="Stroke-9" stroke="#333333" stroke-width="4" stroke-linecap="round" stroke-linejoin="round"></path>
                </g>
            </g>
        </g>
    </g>
</svg>