<?xml version="1.0" encoding="UTF-8"?>
<svg width="104px" height="104px" viewBox="0 0 104 104" version="1.1" xmlns="http://www.w3.org/2000/svg" xmlns:xlink="http://www.w3.org/1999/xlink">
    <!-- Generator: Sketch 52.2 (67145) - http://www.bohemiancoding.com/sketch -->
    <title>缓降技术</title>
    <desc>Created with Sketch.</desc>
    <g id="最终" stroke="none" stroke-width="1" fill="none" fill-rule="evenodd">
        <g id="T1产品" transform="translate(-1182.000000, -2252.000000)">
            <g id="图标" transform="translate(0.000000, 2138.000000)">
                <g id="缓降技术" transform="translate(1182.000000, 114.000000)">
                    <path d="M52,0 C23.281,0 0,23.281 0,52 C0,80.719 23.281,104 52,104 C80.719,104 104,80.719 104,52 C104,23.281 80.719,0 52,0 M52,0.5 C80.397,0.5 103.5,23.603 103.5,52 C103.5,80.397 80.397,103.5 52,103.5 C23.603,103.5 0.5,80.397 0.5,52 C0.5,23.603 23.603,0.5 52,0.5" id="Fill-1" fill="#333333"></path>
                    <polyline id="Stroke-3" stroke="#231815" stroke-width="4" stroke-linecap="round" stroke-linejoin="round" points="27.75 30 27.75 73 70.75 73"></polyline>
                    <path d="M46.5479,43.5732 L49.5579,39.0002" id="Stroke-4" stroke="#231815" stroke-width="4" stroke-linecap="round" stroke-linejoin="round"></path>
                    <path d="M37.7432,57.438 L42.5122,49.473" id="Stroke-5" stroke="#231815" stroke-width="4" stroke-linecap="round" stroke-linejoin="round"></path>
                    <path d="M28.7568,71.7207 L33.6328,63.9607" id="Stroke-6" stroke="#231815" stroke-width="4" stroke-linecap="round" stroke-linejoin="round"></path>
                    <g id="Group-15" transform="translate(29.000000, 27.000000)" stroke="#231815" stroke-linecap="round" stroke-linejoin="round" stroke-width="4">
                        <path d="M40.75,22 L46.056,24 C43.531,12.371 34.375,3.215 22.745,0.693" id="Stroke-7"></path>
                        <path d="M29.9014,29.0083 L34.7504,26.3993" id="Stroke-9"></path>
                        <path d="M15.4824,37.0669 L23.5104,32.3009" id="Stroke-11"></path>
                        <path d="M0.7021,45.4077 L8.7261,40.8737" id="Stroke-13"></path>
                    </g>
                </g>
            </g>
        </g>
    </g>
</svg>