<?xml version="1.0" encoding="UTF-8"?>
<svg width="227px" height="49px" viewBox="0 0 227 49" version="1.1" xmlns="http://www.w3.org/2000/svg" xmlns:xlink="http://www.w3.org/1999/xlink">
    <!-- Generator: Sketch 52.2 (67145) - http://www.bohemiancoding.com/sketch -->
    <title>logo</title>
    <desc>Created with Sketch.</desc>
    <g id="PC端" stroke="none" stroke-width="1" fill="none" fill-rule="evenodd">
        <g id="售后政策_常见问题_T-air" transform="translate(-846.000000, -373.000000)">
            <g id="logo" transform="translate(846.000000, 373.000000)">
                <polygon id="Fill-1" fill="#FFFFFF" points="4.08671053 0.118613281 4.08671053 11.9800977 0 11.9800977 0 19.4517969 4.08671053 19.4517969 4.08671053 47.3454102 12.6014393 47.3454102 12.6014393 19.4517969 17.748 19.4517969 17.748 11.9800977 12.6014393 11.9800977 12.6014393 0.118613281"></polygon>
                <path d="M42.0990679,38.0319336 C43.9523088,36.0447266 44.8804262,33.5704297 44.8804262,30.6080469 C44.8804262,27.6476563 43.9523088,25.1633984 42.0990679,23.1562695 C40.243831,21.1501367 37.9405031,20.1450781 35.1880861,20.1450781 C32.4546306,20.1450781 30.1612825,21.1501367 28.3080416,23.1562695 C26.4518068,25.1633984 25.5256853,27.6476563 25.5256853,30.6080469 C25.5256853,33.5704297 26.4518068,36.0447266 28.3080416,38.0319336 C30.1612825,40.0191406 32.4546306,41.0132422 35.1880861,41.0132422 C37.9405031,41.0132422 40.243831,40.0191406 42.0990679,38.0319336 M22.6704768,43.1319336 C19.2244667,39.693418 17.5029586,35.5187891 17.5029586,30.6080469 C17.5029586,25.6983008 19.2244667,21.514707 22.6704768,18.0562695 C26.114491,14.597832 30.2880254,12.8686133 35.1880861,12.8686133 C40.1071084,12.8686133 44.2886266,14.597832 47.7346367,18.0562695 C51.1806468,21.514707 52.9031529,25.6983008 52.9031529,30.6080469 C52.9031529,35.5187891 51.1806468,39.693418 47.7346367,43.1319336 C44.2886266,46.5714453 40.1071084,48.2907031 35.1880861,48.2907031 C30.2880254,48.2907031 26.114491,46.5714453 22.6704768,43.1319336" id="Fill-2" fill="#FFFFFF"></path>
                <polygon id="Fill-4" fill="#FFFFFF" points="66.7953028 48.2339258 54.1000538 12.8686133 58.5240801 12.8686133 62.9471084 12.8686133 69.8650761 35.0964453 69.8870315 35.0964453 75.5595255 12.8686133 78.9276935 12.8686133 82.2968595 12.8686133 87.9693534 35.0964453 87.9913089 35.0964453 94.9092765 12.8686133 99.3333028 12.8686133 103.756331 12.8686133 91.0610821 48.2339258 88.3795214 48.2339258 85.6959647 48.2339258 78.9256975 25.2590234 78.9306874 25.2590234 72.1594222 48.2339258 69.4778615 48.2339258"></polygon>
                <path d="M106.60893,13.7710742 L108.823438,13.7710742 L111.068883,13.7710742 L111.068883,18.2853711 L111.78543,17.4137891 C114.239452,14.3836719 117.639555,12.8686133 121.985739,12.8686133 C126.808956,12.8686133 130.57332,14.3517969 133.276836,17.3201563 C135.979355,20.2885156 137.331612,24.4183203 137.331612,29.7105664 L137.331612,48.6702148 L135.085168,48.6702148 L132.839723,48.6702148 L132.839723,29.5860547 C132.839723,25.6216016 131.882664,22.5187695 129.970543,20.2775586 C128.056425,18.0363477 125.394824,16.9157422 121.985739,16.9157422 C118.491826,16.9157422 115.804278,18.0512891 113.922096,20.324375 C112.039913,22.5964648 111.09982,25.8397461 111.09982,30.0532227 L111.09982,48.6702148 L108.854375,48.6702148 L106.60893,48.6702148 L106.60893,13.7710742 Z" id="Fill-6" fill="#FFFFFF"></path>
                <polygon id="Clip-9" points="141.614847 12.8686133 177.402527 12.8686133 177.402527 48.7657402 141.614847 48.7657402"></polygon>
                <path d="M172.827535,28.537168 C172.398405,25.5588477 171.141954,22.9879297 169.057183,20.8254102 C166.46045,18.1120508 163.271918,16.7553711 159.490588,16.7553711 C155.729217,16.7553711 152.539687,18.1220117 149.923992,20.8562891 C147.900098,22.9978906 146.643646,25.5588477 146.152642,28.537168 L172.827535,28.537168 Z M159.490588,48.7658398 C154.503703,48.7658398 150.276278,47.0316406 146.812304,43.5632422 C143.347333,40.0948437 141.614847,35.8514844 141.614847,30.832168 C141.614847,25.7929297 143.347333,21.5396094 146.812304,18.0712109 C150.276278,14.6028125 154.503703,12.8686133 159.490588,12.8686133 C164.518389,12.8686133 168.759786,14.6028125 172.214778,18.0712109 C175.66977,21.5396094 177.396268,25.7929297 177.396268,30.832168 C177.417225,31.3830078 177.38529,31.9338477 177.304454,32.4846875 L146.121705,32.4846875 C146.429082,35.688125 147.71647,38.4632422 149.984869,40.809043 C152.622519,43.5224023 155.84099,44.879082 159.644276,44.879082 C162.361764,44.879082 164.747924,44.1957617 166.803754,42.8291211 C168.85659,41.4624805 170.508239,39.4623242 171.754711,36.8306445 L176.323444,36.8306445 C175.096932,40.4006445 172.939308,43.2833398 169.854565,45.4757422 C166.766828,47.6691406 163.312835,48.7658398 159.490588,48.7658398 Z" id="Fill-8" fill="#FFFFFF"></path>
                <polygon id="Fill-11" fill="#FFFFFF" points="188.473317 48.4082422 175.029586 12.8686133 177.436703 12.8686133 179.875756 12.8686133 190.888418 42.955625 190.902389 42.955625 198.922122 17.1488281 200.855201 17.1488281 202.821213 17.1488281 210.903819 42.891875 210.895835 42.891875 221.846622 12.8686133 224.185877 12.8686133 226.557068 12.8686133 213.145272 48.4082422 210.650333 48.4082422 208.12246 48.4082422 200.788337 24.3456055 200.780353 24.3456055 193.49513 48.4082422 190.999193 48.4082422"></polygon>
            </g>
        </g>
    </g>
</svg>