<?xml version="1.0" encoding="UTF-8"?>
<svg width="114px" height="24px" viewBox="0 0 114 24" version="1.1" xmlns="http://www.w3.org/2000/svg" xmlns:xlink="http://www.w3.org/1999/xlink">
    <!-- Generator: Sketch 52.2 (67145) - http://www.bohemiancoding.com/sketch -->
    <title>拓牛logo</title>
    <desc>Created with Sketch.</desc>
    <defs>
        <polygon id="path-1" points="0 0 17.7348895 0 17.7348895 17.7604191 0 17.7604191"></polygon>
    </defs>
    <g id="PC端" stroke="none" stroke-width="1" fill="none" fill-rule="evenodd">
        <g id="首页" transform="translate(-438.000000, -3088.000000)">
            <g id="Group-18" transform="translate(50.000000, 2988.000000)">
                <g id="Group-26">
                    <g id="拓牛logo" transform="translate(388.000000, 100.000000)">
                        <polygon id="Fill-1" fill="#060101" points="2.02520417 0 2.02520417 5.86857367 0 5.86857367 0 9.56526254 2.02520417 9.56526254 2.02520417 23.3658729 6.24475045 23.3658729 6.24475045 9.56526254 8.79517241 9.56526254 8.79517241 5.86857367 6.24475045 5.86857367 6.24475045 0"></polygon>
                        <g id="Group-13" transform="translate(8.901996, 5.327648)">
                            <path d="M12.1888113,12.4497739 C13.1072005,11.4665858 13.567137,10.2424057 13.567137,8.77674072 C13.567137,7.31206143 13.1072005,6.08295304 12.1888113,5.08990837 C11.2694328,4.09735652 10.1279991,3.60009495 8.76401543,3.60009495 C7.40942831,3.60009495 6.27294011,4.09735652 5.35455082,5.08990837 C4.43467786,6.08295304 3.97573049,7.31206143 3.97573049,8.77674072 C3.97573049,10.2424057 4.43467786,11.4665858 5.35455082,12.4497739 C6.27294011,13.4329621 7.40942831,13.9248026 8.76401543,13.9248026 C10.1279991,13.9248026 11.2694328,13.4329621 12.1888113,12.4497739 M2.56080762,14.9730438 C0.853107985,13.2718079 0,11.2063736 0,8.77674072 C0,6.34760068 0.853107985,4.27773089 2.56080762,2.56663853 C4.26751815,0.855546178 6.33574864,0 8.76401543,0 C11.2016788,0 13.2738657,0.855546178 14.9815653,2.56663853 C16.689265,4.27773089 17.5428675,6.34760068 17.5428675,8.77674072 C17.5428675,11.2063736 16.689265,13.2718079 14.9815653,14.9730438 C13.2738657,16.6747724 11.2016788,17.5253903 8.76401543,17.5253903 C6.33574864,17.5253903 4.26751815,16.6747724 2.56080762,14.9730438" id="Fill-2" fill="#060101"></path>
                            <polygon id="Fill-4" fill="#060101" points="23.8774456 17.4972993 17.5862069 0 19.7785708 0 21.9704401 0 25.3986978 10.9974153 25.409578 10.9974153 28.2206307 0 29.889755 0 31.5593739 0 34.3704265 10.9974153 34.3813067 10.9974153 37.8095644 0 40.0019283 0 42.1937976 0 35.902559 17.4972993 34.5736887 17.4972993 33.2438294 17.4972993 29.8887659 6.13026435 29.8912387 6.13026435 26.5356806 17.4972993 25.2068103 17.4972993"></polygon>
                            <path d="M44.4827586,0.446500482 L45.580177,0.446500482 L46.6929265,0.446500482 L46.6929265,2.67998855 L47.0480172,2.24876567 C48.2641289,0.749588558 49.9490789,0 52.1028675,0 C54.4930535,0 56.3585163,0.733818122 57.6982668,2.20244002 C59.0375227,3.67106191 59.7076452,5.71431909 59.7076452,8.33270436 L59.7076452,17.7131571 L58.5944011,17.7131571 L57.4816515,17.7131571 L57.4816515,8.2711011 C57.4816515,6.30965306 57.007373,4.77449964 56.0598049,3.66564082 C55.1112477,2.55678201 53.7922686,2.0023526 52.1028675,2.0023526 C50.3714292,2.0023526 49.0395917,2.5641744 48.1068603,3.68880365 C47.1741289,4.81294008 46.7082577,6.41758199 46.7082577,8.50223656 L46.7082577,17.7131571 L45.5955082,17.7131571 L44.4827586,17.7131571 L44.4827586,0.446500482 Z" id="Fill-6" fill="#060101"></path>
                            <g id="Group-10" transform="translate(60.830309, 0.000000)">
                                <mask id="mask-2" fill="white">
                                    <use xlink:href="#path-1"></use>
                                </mask>
                                <g id="Clip-9"></g>
                                <path d="M15.4677132,7.75215517 C15.2550544,6.27860502 14.6324093,5.00662075 13.5992831,3.9366952 C12.3124501,2.5942368 10.7323457,1.9230076 8.8584755,1.9230076 C6.99449637,1.9230076 5.41389746,2.59916506 4.11766788,3.95197281 C3.11470962,5.01154901 2.49206443,6.27860502 2.24874319,7.75215517 L15.4677132,7.75215517 Z M8.8584755,17.7604684 C6.3871824,17.7604684 4.29224592,16.9024581 2.57564428,15.1864375 C0.858548094,13.4704169 0,11.3709775 0,8.8876266 C0,6.39441916 0.858548094,4.29005154 2.57564428,2.57403093 C4.29224592,0.858010309 6.3871824,0 8.8584755,0 C11.3500454,0 13.4519056,0.858010309 15.1640563,2.57403093 C16.8762069,4.29005154 17.7317877,6.39441916 17.7317877,8.8876266 C17.7421733,9.16015945 17.7263475,9.43269231 17.6862886,9.70522516 L2.23341198,9.70522516 C2.38573503,11.290154 3.02371143,12.6631677 4.14783575,13.8237732 C5.45494555,15.1662316 7.04988657,15.8374608 8.93463702,15.8374608 C10.2813113,15.8374608 11.4637931,15.4993821 12.4825771,14.8232246 C13.4998775,14.1470672 14.3183666,13.1574723 14.9360662,11.8554256 L17.2001407,11.8554256 C16.5923321,13.6217145 15.5231034,15.0479533 13.9944328,16.1326637 C12.4642786,17.2178668 10.7526225,17.7604684 8.8584755,17.7604684 Z" id="Fill-8" fill="#060101" mask="url(#mask-2)"></path>
                            </g>
                            <polygon id="Fill-11" fill="#060101" points="85.2828448 17.5835438 78.6206897 0 79.8135572 0 81.0222505 0 86.4796688 14.8858135 86.4865926 14.8858135 90.4608394 2.11767392 91.4187931 2.11767392 92.3930672 2.11767392 96.398471 14.8542727 96.3945145 14.8542727 101.82127 0 102.980508 0 104.155572 0 97.5092423 17.5835438 96.2728539 17.5835438 95.0201452 17.5835438 91.3856579 5.67834278 91.3817015 5.67834278 87.7714474 17.5835438 86.5345644 17.5835438"></polygon>
                        </g>
                    </g>
                </g>
            </g>
        </g>
    </g>
</svg>