<?xml version="1.0" encoding="UTF-8"?>
<svg width="82px" height="82px" viewBox="0 0 82 82" version="1.1" xmlns="http://www.w3.org/2000/svg" xmlns:xlink="http://www.w3.org/1999/xlink">
    <!-- Generator: Sketch 52.2 (67145) - http://www.bohemiancoding.com/sketch -->
    <title>容量适中</title>
    <desc>Created with Sketch.</desc>
    <g id="容量适中" stroke="none" stroke-width="1" fill="none" fill-rule="evenodd">
        <rect id="Rectangle" fill="#FFF4D4" opacity="0" x="0" y="0" width="82" height="82"></rect>
        <g id="Group-43" transform="translate(22.000000, 21.000000)">
            <path d="M30.2246,8.7891 L37.2566,0.9851 C37.8706,0.3051 38.9996,0.7381 38.9996,1.6541 L38.9996,40.0001 L-0.000400000019,40.0001 L-0.000400000019,1.6541 C-0.000400000019,0.7381 1.1296,0.3051 1.7436,0.9851 L8.7756,8.7891" id="Stroke-3" stroke="#FFFFFF" stroke-width="4" stroke-linecap="round" stroke-linejoin="round"></path>
            <polyline id="Stroke-5" stroke="#FFFFFF" stroke-width="4" stroke-linecap="round" stroke-linejoin="round" points="30.2246 32.0527 38.9996 39.9997 -0.000400000019 39.9997 8.7756 32.0527"></polyline>
            <polygon id="Fill-7" fill="#FFFFFF" points="24.5 25 24.5 16.5 25.5 16.5 25.5 24.056 29.5 24.056 29.5 25"></polygon>
            <polygon id="Stroke-9" stroke="#FFFFFF" stroke-linecap="round" stroke-linejoin="round" points="24.5 25 24.5 16.5 25.5 16.5 25.5 24.056 29.5 24.056 29.5 25"></polygon>
            <path d="M12.5,25.5059 L11.506,25.5119 L11.491,18.4669 C11.237,18.7219 10.904,18.9769 10.492,19.2319 C10.08,19.4869 9.71,19.6779 9.382,19.8059 L9.382,18.7329 C9.972,18.4409 10.487,18.0869 10.929,17.6719 C11.37,17.2559 11.683,16.8539 11.866,16.4629 L12.546,16.4629 L12.5,25.5059 Z" id="Fill-11" fill="#FFFFFF"></path>
            <path d="M12.5,25.5059 L11.506,25.5119 L11.491,18.4669 C11.237,18.7219 10.904,18.9769 10.492,19.2319 C10.08,19.4869 9.71,19.6779 9.382,19.8059 L9.382,18.7329 C9.972,18.4409 10.487,18.0869 10.929,17.6719 C11.37,17.2559 11.683,16.8539 11.866,16.4629 L12.546,16.4629 L12.5,25.5059 Z" id="Stroke-13" stroke="#FFFFFF" stroke-linecap="round" stroke-linejoin="round"></path>
            <path d="M21.0996,24.4521 L21.0996,25.5121 L15.4986,25.5121 C15.4916,25.2461 15.5316,24.9911 15.6206,24.7461 C15.7626,24.3421 15.9916,23.9431 16.3056,23.5511 C16.6196,23.1591 17.0736,22.7061 17.6656,22.1911 C18.5876,21.3901 19.2096,20.7561 19.5336,20.2881 C19.8576,19.8211 20.0196,19.3791 20.0196,18.9621 C20.0196,18.5251 19.8716,18.1561 19.5776,17.8561 C19.2826,17.5561 18.8976,17.4061 18.4236,17.4061 C17.9226,17.4061 17.5216,17.5651 17.2216,17.8841 C16.9206,18.2021 16.7686,18.6431 16.7646,19.2071 L15.6956,19.0911 C15.7686,18.2451 16.0436,17.6001 16.5216,17.1571 C16.9996,16.7151 17.6416,16.4931 18.4476,16.4931 C19.2596,16.4931 19.9036,16.7311 20.3776,17.2101 C20.8516,17.6871 21.0886,18.2801 21.0886,18.9861 C21.0886,19.3461 21.0196,19.6991 20.8796,20.0471 C20.7416,20.3931 20.5116,20.7591 20.1896,21.1431 C19.8686,21.5271 19.3326,22.0541 18.5856,22.7231 C17.9606,23.2791 17.5606,23.6561 17.3826,23.8541 C17.2056,24.0531 17.0596,24.2521 16.9446,24.4521 L21.0996,24.4521 Z" id="Fill-15" fill="#FFFFFF"></path>
            <path d="M21.0996,24.4521 L21.0996,25.5121 L15.4986,25.5121 C15.4916,25.2461 15.5316,24.9911 15.6206,24.7461 C15.7626,24.3421 15.9916,23.9431 16.3056,23.5511 C16.6196,23.1591 17.0736,22.7061 17.6656,22.1911 C18.5876,21.3901 19.2096,20.7561 19.5336,20.2881 C19.8576,19.8211 20.0196,19.3791 20.0196,18.9621 C20.0196,18.5251 19.8716,18.1561 19.5776,17.8561 C19.2826,17.5561 18.8976,17.4061 18.4236,17.4061 C17.9226,17.4061 17.5216,17.5651 17.2216,17.8841 C16.9206,18.2021 16.7686,18.6431 16.7646,19.2071 L15.6956,19.0911 C15.7686,18.2451 16.0436,17.6001 16.5216,17.1571 C16.9996,16.7151 17.6416,16.4931 18.4476,16.4931 C19.2596,16.4931 19.9036,16.7311 20.3776,17.2101 C20.8516,17.6871 21.0886,18.2801 21.0886,18.9861 C21.0886,19.3461 21.0196,19.6991 20.8796,20.0471 C20.7416,20.3931 20.5116,20.7591 20.1896,21.1431 C19.8686,21.5271 19.3326,22.0541 18.5856,22.7231 C17.9606,23.2791 17.5606,23.6561 17.3826,23.8541 C17.2056,24.0531 17.0596,24.2521 16.9446,24.4521 L21.0996,24.4521 Z" id="Stroke-17" stroke="#FFFFFF" stroke-linecap="round" stroke-linejoin="round"></path>
        </g>
    </g>
</svg>