<?xml version="1.0" encoding="UTF-8"?>
<svg width="82px" height="82px" viewBox="0 0 82 82" version="1.1" xmlns="http://www.w3.org/2000/svg" xmlns:xlink="http://www.w3.org/1999/xlink">
    <!-- Generator: Sketch 52.2 (67145) - http://www.bohemiancoding.com/sketch -->
    <title>敞口设计</title>
    <desc>Created with Sketch.</desc>
    <g id="敞口设计" stroke="none" stroke-width="1" fill="none" fill-rule="evenodd">
        <rect id="Rectangle" fill="#FFF4D4" opacity="0" x="0" y="0" width="82" height="82"></rect>
        <g id="Group-39" transform="translate(20.000000, 17.000000)" stroke="#FFFFFF">
            <polygon id="Stroke-3" stroke-width="4" stroke-linecap="round" stroke-linejoin="round" points="8.75 42 32.75 42 32.75 21 8.75 21"></polygon>
            <polyline id="Stroke-4" stroke-width="2" stroke-linecap="round" stroke-linejoin="round" points="27.3496 26.0137 32.7496 21.0267 8.7496 21.0267 14.1506 26.0137"></polyline>
            <polyline id="Stroke-5" stroke-width="2" stroke-linecap="round" stroke-linejoin="round" points="27.3496 36.9863 32.7496 41.9733 8.7496 41.9733 14.1506 36.9863"></polyline>
            <path d="M39.0605,13.376 L41.1645,2.376 C41.4015,1.143 40.4565,0 39.2015,0 L2.2985,0 C1.0435,0 0.0985,1.143 0.3345,2.376 L2.4395,13.376 C2.6195,14.318 3.4445,15 4.4035,15 L37.0965,15 C38.0555,15 38.8805,14.318 39.0605,13.376 Z" id="Stroke-6" stroke-width="4"></path>
            <path d="M36.75,48 L4.75,48 C3.646,48 2.75,47.104 2.75,46 L2.75,17 C2.75,15.896 3.646,15 4.75,15 L36.75,15 C37.854,15 38.75,15.896 38.75,17 L38.75,46 C38.75,47.104 37.854,48 36.75,48 Z" id="Stroke-8" stroke-width="4" stroke-linejoin="round"></path>
        </g>
    </g>
</svg>