<?xml version="1.0" encoding="UTF-8"?>
<svg width="82px" height="82px" viewBox="0 0 82 82" version="1.1" xmlns="http://www.w3.org/2000/svg" xmlns:xlink="http://www.w3.org/1999/xlink">
    <!-- Generator: Sketch 52.2 (67145) - http://www.bohemiancoding.com/sketch -->
    <title>无断点设计</title>
    <desc>Created with Sketch.</desc>
    <g id="无断点设计" stroke="none" stroke-width="1" fill="none" fill-rule="evenodd">
        <rect id="Rectangle" fill="#FFF4D4" opacity="0" x="0" y="0" width="82" height="82"></rect>
        <g id="Group-42" transform="translate(16.000000, 17.000000)" stroke="#FFFFFF" stroke-linecap="round" stroke-linejoin="round" stroke-width="4">
            <path d="M45,33 L4,33 C1.791,33 0,31.209 0,29 L0,4 C0,1.791 1.791,0 4,0 L45,0 C47.209,0 49,1.791 49,4 L49,29 C49,31.209 47.209,33 45,33 Z" id="Stroke-3"></path>
            <path d="M36,21 L13,21 C9.134,21 6,17.866 6,14 L6,13 C6,9.134 9.134,6 13,6 L36,6 C39.866,6 43,9.134 43,13 L43,14 C43,17.866 39.866,21 36,21 Z" id="Stroke-5"></path>
            <path d="M39,33 L39,35" id="Stroke-7"></path>
            <path d="M39,40.8149 L39,45.9999 C39,47.1049 38.104,47.9999 37,47.9999 L11,47.9999 C9.896,47.9999 9,47.1049 9,45.9999 L9,37.9079" id="Stroke-9" stroke-dasharray="3.877,5.815"></path>
            <path d="M9,35 L9,33" id="Stroke-11"></path>
            <path d="M45,27 L4,27 C1.791,27 0,25.209 0,23 L0,4 C0,1.791 1.791,0 4,0 L45,0 C47.209,0 49,1.791 49,4 L49,23 C49,25.209 47.209,27 45,27 Z" id="Stroke-13"></path>
        </g>
    </g>
</svg>