<?xml version="1.0" encoding="UTF-8"?>
<svg width="82px" height="82px" viewBox="0 0 82 82" version="1.1" xmlns="http://www.w3.org/2000/svg" xmlns:xlink="http://www.w3.org/1999/xlink">
    <!-- Generator: Sketch 52.2 (67145) - http://www.bohemiancoding.com/sketch -->
    <title>超载打包</title>
    <desc>Created with Sketch.</desc>
    <g id="超载打包" stroke="none" stroke-width="1" fill="none" fill-rule="evenodd">
        <rect id="Rectangle" fill="#FFF4D4" opacity="0" x="0" y="0" width="82" height="82"></rect>
        <g id="Group-45" transform="translate(21.000000, 18.000000)" stroke="#FFFFFF">
            <path d="M31,14.9951 L38.213,6.9941 C38.842,6.2961 40,6.7411 40,7.6811 L40,47.0001 L0,47.0001 L0,7.6811 C0,6.7411 1.158,6.2961 1.787,6.9941 L9,14.9951" id="Stroke-3" stroke-width="4" stroke-linecap="round" stroke-linejoin="round"></path>
            <path d="M35.8125,28.6045 C35.8125,29.5595 35.0385,30.3335 34.0835,30.3335 C33.1275,30.3335 32.3545,29.5595 32.3545,28.6045 C32.3545,27.6495 33.1275,26.8755 34.0835,26.8755 C35.0385,26.8755 35.8125,27.6495 35.8125,28.6045 Z" id="Stroke-5" stroke-width="2"></path>
            <path d="M36,38 C36,40.209 34.209,42 32,42 C29.791,42 28,40.209 28,38 C28,35.791 29.791,34 32,34 C34.209,34 36,35.791 36,38 Z" id="Stroke-7" stroke-width="2"></path>
            <path d="M6.8936,40.3584 C7.2476,41.4054 6.6876,42.5404 5.6416,42.8934 C4.5946,43.2484 3.4596,42.6874 3.1066,41.6414 C2.7516,40.5944 3.3126,39.4604 4.3586,39.1064 C5.4056,38.7524 6.5396,39.3124 6.8936,40.3584 Z" id="Stroke-9" stroke-width="2"></path>
            <path d="M7.541,21.7246 C8.245,22.5766 8.126,23.8366 7.275,24.5406 C6.424,25.2456 5.163,25.1256 4.459,24.2756 C3.755,23.4236 3.874,22.1626 4.725,21.4586 C5.576,20.7546 6.837,20.8736 7.541,21.7246 Z" id="Stroke-11" stroke-width="2"></path>
            <path d="M26.0625,13.6133 L29.0185,2.5813 C29.1615,2.0473 28.8445,1.4993 28.3115,1.3563 L23.4815,0.0613 C22.9485,-0.0807 22.3995,0.2353 22.2565,0.7693 L19.2635,11.9403 C19.1235,12.4643 18.7365,12.8853 18.2275,13.0723 L14.1145,14.5733 C13.6055,14.7593 13.2185,15.1813 13.0785,15.7053 L7.6135,36.0993 C7.0305,38.2783 8.3225,40.5163 10.5005,41.1003 L19.0335,43.3863 C21.2115,43.9703 23.4505,42.6773 24.0345,40.5003 L29.5045,20.0823 C29.6415,19.5713 29.5275,19.0253 29.1975,18.6123 L26.3705,15.0833 C26.0405,14.6703 25.9245,14.1243 26.0625,13.6133 Z" id="Stroke-13" stroke-width="2" stroke-linecap="round" stroke-linejoin="round"></path>
            <path d="M21.7393,2.7012 L28.5013,4.5132" id="Stroke-15" stroke-width="2" stroke-linecap="round" stroke-linejoin="round"></path>
        </g>
    </g>
</svg>