<?xml version="1.0" encoding="UTF-8"?>
<svg width="18px" height="21px" viewBox="0 0 18 21" version="1.1" xmlns="http://www.w3.org/2000/svg" xmlns:xlink="http://www.w3.org/1999/xlink">
    <!-- Generator: Sketch 52.2 (67145) - http://www.bohemiancoding.com/sketch -->
    <title>365天官方保修</title>
    <desc>Created with Sketch.</desc>
    <g id="最终" stroke="none" stroke-width="1" fill="none" fill-rule="evenodd" stroke-linecap="round" stroke-linejoin="round">
        <g id="T1产品" transform="translate(-683.000000, -13315.000000)" stroke="#FFFFFF">
            <g id="Group-26" transform="translate(0.000000, 13192.000000)">
                <g id="365天官方保修" transform="translate(684.000000, 124.000000)">
                    <path d="M8.10294118,18.8602941 C3.78127941,16.5026176 0.445102941,16.2891471 0,11.3860294 L0,1.88602941 C3.42279412,1.04779412 8.10294118,0 8.10294118,0 C8.10294118,0 13.0625,1.04779412 16.2058824,1.88602941 L16.2058824,11.3860294 C15.7607794,16.2891471 12.4246029,16.5026176 8.10294118,18.8602941 Z" id="Stroke-1"></path>
                    <path d="M12.8529412,11.6095029 L10.3047059,9.06126765 C10.4715147,8.6564 10.5578529,8.20962059 10.5410882,7.74104706 C10.4824118,6.11123824 9.11301471,4.74156176 7.48376471,4.68232647 C7.01435294,4.66500294 6.56757353,4.75162059 6.16214706,4.91870882 L7.94479412,6.70135588 L6.21216176,8.43370882 L4.42979412,6.65106176 C4.26270588,7.05648824 4.17580882,7.50326765 4.19341176,7.97267941 C4.25264706,9.60192941 5.62232353,10.9713265 7.25213235,11.0300029 C7.72070588,11.0467676 8.16720588,10.9604294 8.57235294,10.7936206 L11.1205882,13.3418559 C12.0775735,13.3418559 12.8529412,12.5664882 12.8529412,11.6095029 Z" id="Stroke-3"></path>
                </g>
            </g>
        </g>
    </g>
</svg>