<?xml version="1.0" encoding="UTF-8"?>
<svg width="23px" height="18px" viewBox="0 0 23 18" version="1.1" xmlns="http://www.w3.org/2000/svg" xmlns:xlink="http://www.w3.org/1999/xlink">
    <!-- Generator: Sketch 52.2 (67145) - http://www.bohemiancoding.com/sketch -->
    <title>底部微博选中icon</title>
    <desc>Created with Sketch.</desc>
    <g id="最终" stroke="none" stroke-width="1" fill="none" fill-rule="evenodd" opacity="0.5">
        <g id="T1产品" transform="translate(-1444.000000, -13548.000000)" fill="#FFFFFF" fill-rule="nonzero">
            <g id="Group-26" transform="translate(0.000000, 13192.000000)">
                <g id="底部微博选中icon" transform="translate(1444.920000, 356.500000)">
                    <path d="M15.7103895,8.47253198 C15.3706395,8.44077035 15.0626512,8.25344477 15.2880698,7.86607849 C15.5134884,7.47871221 15.9294506,6.35151453 15.129314,5.5577093 C14.3291773,4.76073837 12.5796453,5.06239535 11.3413081,5.57678198 C10.1061628,6.0911686 10.1728517,5.73237209 10.2109448,5.37993314 C10.2522297,5.00844767 10.9190407,2.93185465 8.8805407,2.68103198 C6.2102093,2.35399709 2.7841657,5.65935174 1.57439826,7.56447384 C-0.254511628,10.4412035 0.0344302326,12.3876105 0.0344302326,12.3876105 L0.047119186,12.3876105 C0.266206395,15.0738227 4.22251744,17.2138866 9.07103198,17.2138866 C13.2400465,17.2138866 16.7518517,15.629468 17.7901221,13.4766628 C17.7901221,13.4766628 17.793314,13.4671395 17.802811,13.4512587 C17.9107849,13.2194564 17.9933285,12.9845145 18.0441105,12.7400233 C18.1901773,12.1621657 18.3012907,11.3238837 18.0282297,10.498343 C17.5424128,9.03775291 16.0500872,8.5042936 15.7103372,8.4725843 L15.7103895,8.47253198 Z M8.47096221,16.0390203 C5.01951453,16.0390203 2.21899709,14.1847064 2.21899709,11.8985756 C2.21899709,9.61244477 5.01634884,7.75813081 8.47096221,7.75813081 C11.9224099,7.75813081 14.7229273,9.61244477 14.7229273,11.8985756 C14.7229273,14.1878983 11.9224099,16.0390203 8.47096221,16.0390203 Z M16.9709651,6.86273547 C17.0344622,6.89130523 17.1011512,6.90402035 17.167814,6.90402035 C17.3646628,6.90402035 17.5551802,6.78652326 17.6345581,6.59286628 C17.7647442,6.28485174 17.831407,5.95784302 17.831407,5.61806686 C17.831407,4.24004651 16.7105669,3.11918023 15.3325203,3.11918023 C14.995936,3.11918023 14.6689273,3.18584302 14.3609128,3.31602907 C14.1037326,3.42400291 13.9830698,3.72244186 14.0910174,3.98281395 C14.1989913,4.23999419 14.4974302,4.36065698 14.7578023,4.2527093 C14.9419622,4.17649709 15.1356453,4.13521221 15.3356599,4.13521221 C16.1548692,4.13521221 16.8184622,4.80199709 16.8184622,5.61801453 C16.8184622,5.81805523 16.7803692,6.01176453 16.7009651,6.19587209 C16.5898517,6.45624419 16.7104884,6.7547093 16.9708605,6.86265698 L16.9709651,6.86273547 Z" id="Shape"></path>
                    <path d="M15.3040029,0.001125 C14.7356424,0.001125 14.1736395,0.0836686047 13.6338488,0.242424419 C13.2306017,0.363061047 13.0019913,0.785380814 13.1194622,1.18862791 C13.2400988,1.591875 13.6624186,1.82048547 14.0656657,1.70301453 C14.4657471,1.58551744 14.8816831,1.52521221 15.3039767,1.52521221 C17.6949157,1.52521221 19.6412965,3.47161919 19.6412965,5.86253198 C19.6412965,6.29118314 19.5777994,6.71664244 19.4571366,7.1230814 C19.3365,7.52632849 19.5619186,7.95181395 19.9651919,8.07245058 C20.0382122,8.09468895 20.1143983,8.10421221 20.1874709,8.10421221 C20.5145058,8.10421221 20.8161628,7.89148256 20.9177791,7.56444767 C21.0828924,7.01515988 21.1686279,6.44360756 21.1686279,5.86253198 C21.165436,2.63017151 18.5363895,0.001125 15.3040552,0.001125 L15.3040029,0.001125 Z M7.89307849,9.26950291 C6.05147965,9.26950291 4.55912791,10.5745291 4.55912791,12.1875174 C4.55912791,13.8005058 6.05145349,15.105532 7.89307849,15.105532 C9.73470349,15.105532 11.2270291,13.8005058 11.2270291,12.1875174 C11.2270291,10.5745291 9.73470349,9.26950291 7.89307849,9.26950291 Z M6.80397384,14.0831424 C6.15940116,14.0831424 5.63551744,13.5592326 5.63551744,12.914686 C5.63551744,12.2701395 6.15942733,11.7462297 6.80397384,11.7462297 C7.44854651,11.7462297 7.97243023,12.2701395 7.97243023,12.914686 C7.97243023,13.5592587 7.44852035,14.0831424 6.80397384,14.0831424 Z M8.9885407,11.9779797 C8.8488314,12.2224709 8.56622093,12.3240872 8.35984884,12.2034244 C8.15347674,12.0859273 8.1026686,11.7906541 8.24235174,11.5461628 C8.38206105,11.3016715 8.66467151,11.2000552 8.8710436,11.320718 C9.0774157,11.4413547 9.12822384,11.7366802 8.9885407,11.9779797 Z" id="Shape"></path>
                </g>
            </g>
        </g>
    </g>
</svg>