<?xml version="1.0" encoding="UTF-8"?>
<svg width="65px" height="14px" viewBox="0 0 65 14" version="1.1" xmlns="http://www.w3.org/2000/svg" xmlns:xlink="http://www.w3.org/1999/xlink">
    <!-- Generator: Sketch 52.2 (67145) - http://www.bohemiancoding.com/sketch -->
    <title>底部logo</title>
    <desc>Created with Sketch.</desc>
    <defs>
        <polygon id="path-1" points="0 0 10.1573662 0 10.1573662 10.1719879 0 10.1719879"></polygon>
    </defs>
    <g id="最终" stroke="none" stroke-width="1" fill="none" fill-rule="evenodd">
        <g id="T1产品" transform="translate(-361.000000, -13230.000000)">
            <g id="Group-26" transform="translate(0.000000, 13192.000000)">
                <g id="底部logo" transform="translate(361.000000, 38.000000)">
                    <polygon id="Fill-1" fill="#999999" points="1.15990238 0 1.15990238 3.36112903 0 3.36112903 0 5.47834677 1.15990238 5.47834677 1.15990238 13.3824194 3.5765781 13.3824194 3.5765781 5.47834677 5.03729032 5.47834677 5.03729032 3.36112903 3.5765781 3.36112903 3.5765781 0"></polygon>
                    <g id="Group-13" transform="translate(5.098472, 2.051323)">
                        <path d="M6.98094114,7.13040323 C7.5069335,6.56729839 7.77035456,5.86616935 7.77035456,5.02673387 C7.77035456,4.1878629 7.5069335,3.48391129 6.98094114,2.91516129 C6.45438229,2.34669355 5.80064488,2.06189516 5.01944567,2.06189516 C4.24362818,2.06189516 3.59272326,2.34669355 3.0667309,2.91516129 C2.53988879,3.48391129 2.27703424,4.1878629 2.27703424,5.02673387 C2.27703424,5.86616935 2.53988879,6.56729839 3.0667309,7.13040323 C3.59272326,7.69350806 4.24362818,7.97520161 5.01944567,7.97520161 C5.80064488,7.97520161 6.45438229,7.69350806 6.98094114,7.13040323 M1.46666044,8.57556452 C0.488603565,7.60120968 0,6.41826613 0,5.02673387 C0,3.63548387 0.488603565,2.45 1.46666044,1.47 C2.44415082,0.49 3.62869581,0 5.01944567,0 C6.41557725,0 7.60238823,0.49 8.5804451,1.47 C9.55850198,2.45 10.0473888,3.63548387 10.0473888,5.02673387 C10.0473888,6.41826613 9.55850198,7.60120968 8.5804451,8.57556452 C7.60238823,9.55020161 6.41557725,10.037379 5.01944567,10.037379 C3.62869581,10.037379 2.44415082,9.55020161 1.46666044,8.57556452" id="Fill-2" fill="#999999"></path>
                        <polygon id="Fill-4" fill="#999999" points="13.6032035 10.0212903 10 0 11.2556404 0 12.5109975 0 14.4744757 6.29858871 14.4807071 6.29858871 16.0906913 0 17.0466548 0 18.0029015 0 19.6128857 6.29858871 19.6191171 6.29858871 21.5825954 0 22.8382357 0 24.0935928 0 20.4903894 10.0212903 19.7293008 10.0212903 18.9676457 10.0212903 17.0460883 3.51100806 17.0475045 3.51100806 15.1256638 10.0212903 14.3645753 10.0212903"></polygon>
                        <path d="M25,0.255725806 L25.6285283,0.255725806 L26.2658373,0.255725806 L26.2658373,1.53491935 L26.4692097,1.28794355 C27.1657176,0.429314516 28.130745,0 29.364292,0 C30.7332317,0 31.8016449,0.420282258 32.5689649,1.26141129 C33.3360017,2.10254032 33.7198033,3.27278226 33.7198033,4.77241935 L33.7198033,10.1449194 L33.0822111,10.1449194 L32.4449021,10.1449194 L32.4449021,4.7371371 C32.4449021,3.61375 32.1732668,2.73451613 31.6305628,2.09943548 C31.0872923,1.46435484 30.3318687,1.14681452 29.364292,1.14681452 C28.3726392,1.14681452 27.6098512,1.46858871 27.0756446,2.11270161 C26.541438,2.75653226 26.274618,3.67556452 26.274618,4.86951613 L26.274618,10.1449194 L25.637309,10.1449194 L25,10.1449194 L25,0.255725806 Z" id="Fill-6" fill="#999999"></path>
                        <g id="Group-10" transform="translate(34.839559, 0.000000)">
                            <mask id="mask-2" fill="white">
                                <use xlink:href="#path-1"></use>
                            </mask>
                            <g id="Clip-9"></g>
                            <path d="M8.85887832,4.43991935 C8.73708149,3.59596774 8.3804717,2.86745968 7.7887657,2.25467742 C7.05175325,1.48580645 6.14677448,1.10137097 5.07354612,1.10137097 C4.00598274,1.10137097 3.10072071,1.48862903 2.35832654,2.26342742 C1.7838987,2.87028226 1.42728891,3.59596774 1.28793067,4.43991935 L8.85887832,4.43991935 Z M5.07354612,10.1720161 C3.65815365,10.1720161 2.45831324,9.68060484 1.47515789,8.69778226 C0.491719298,7.71495968 0,6.51254032 0,5.09024194 C0,3.66229839 0.491719298,2.45705645 1.47515789,1.47423387 C2.45831324,0.49141129 3.65815365,0 5.07354612,0 C6.50055178,0 7.70435767,0.49141129 8.68496378,1.47423387 C9.66556989,2.45705645 10.1555897,3.66229839 10.1555897,5.09024194 C10.1615379,5.24633065 10.152474,5.40241935 10.1295308,5.55850806 L1.27914997,5.55850806 C1.36639049,6.46625 1.73178098,7.25262097 2.3756047,7.91733871 C3.12423033,8.68620968 4.03770656,9.07064516 5.11716638,9.07064516 C5.8884519,9.07064516 6.56569892,8.87701613 7.14919072,8.48975806 C7.73183277,8.1025 8.20060894,7.53572581 8.55438625,6.79 L9.85109762,6.79 C9.50298529,7.8016129 8.89060215,8.61846774 8.01508121,9.23971774 C7.13871053,9.86125 6.15838766,10.1720161 5.07354612,10.1720161 Z" id="Fill-8" fill="#999999" mask="url(#mask-2)"></path>
                        </g>
                        <polygon id="Fill-11" fill="#999999" points="48.8156398 10.0706855 45 0 45.6831952 0 46.3754544 0 49.501101 8.52560484 49.5050665 8.52560484 51.781251 1.2128629 52.3299032 1.2128629 52.8879027 1.2128629 55.1819318 8.50754032 55.1796658 8.50754032 58.287751 0 58.9516853 0 59.6246836 0 55.8181078 10.0706855 55.1099867 10.0706855 54.3925184 10.0706855 52.3109256 3.25217742 52.3086596 3.25217742 50.240946 10.0706855 49.5325416 10.0706855"></polygon>
                    </g>
                </g>
            </g>
        </g>
    </g>
</svg>