<?xml version="1.0" encoding="UTF-8"?>
<svg width="104px" height="104px" viewBox="0 0 104 104" version="1.1" xmlns="http://www.w3.org/2000/svg" xmlns:xlink="http://www.w3.org/1999/xlink">
    <!-- Generator: Sketch 52.2 (67145) - http://www.bohemiancoding.com/sketch -->
    <title>红外感应开合</title>
    <desc>Created with Sketch.</desc>
    <g id="最终" stroke="none" stroke-width="1" fill="none" fill-rule="evenodd">
        <g id="T1产品" transform="translate(-908.000000, -2252.000000)">
            <g id="图标" transform="translate(0.000000, 2138.000000)">
                <g id="红外感应开合" transform="translate(908.000000, 114.000000)">
                    <path d="M52,0 C23.281,0 0,23.281 0,52 C0,80.719 23.281,104 52,104 C80.719,104 104,80.719 104,52 C104,23.281 80.719,0 52,0 M52,0.5 C80.397,0.5 103.5,23.603 103.5,52 C103.5,80.397 80.397,103.5 52,103.5 C23.603,103.5 0.5,80.397 0.5,52 C0.5,23.603 23.603,0.5 52,0.5" id="Fill-1" fill="#333333"></path>
                    <path d="M59.6387,51.6006 C59.6387,53.7746 58.6577,55.7146 57.1147,56.9996 L57.0907,56.9996 C55.8757,58.0046 54.3327,58.6126 52.6267,58.6126 C50.8037,58.6126 49.1447,57.9116 47.9057,56.7666 C46.5027,55.5036 45.6157,53.6576 45.6157,51.6006 C45.6157,49.9646 46.1757,48.4686 47.1117,47.2766 C48.3967,45.6406 50.3827,44.5886 52.6267,44.5886 C54.7537,44.5886 56.6477,45.5236 57.9327,47.0196 C58.9847,48.2356 59.6387,49.8476 59.6387,51.6006" id="Fill-3" fill="#333333"></path>
                    <path d="M41.9502,62.4473 C39.1832,59.8023 37.4742,56.0803 37.4742,51.9503 C37.4742,47.9223 39.1022,44.3013 41.7472,41.6563" id="Stroke-5" stroke="#333333" stroke-width="4" stroke-linecap="round"></path>
                    <path d="M62.6797,41.9619 C65.1417,44.5659 66.6467,48.0849 66.6467,51.9499 C66.6467,55.9169 65.0607,59.5179 62.4767,62.1429" id="Stroke-7" stroke="#333333" stroke-width="4" stroke-linecap="round"></path>
                    <path d="M35.3311,69.0781 C30.8661,64.7301 28.0851,58.6531 28.0851,51.9221 C28.0851,45.3071 30.7721,39.3481 35.0971,35.0001" id="Stroke-9" stroke="#333333" stroke-width="4" stroke-linecap="round"></path>
                    <path d="M69.3389,35.3506 C73.4519,39.6516 75.9999,45.4946 75.9999,51.9216 C75.9999,58.4666 73.3599,64.4036 69.1059,68.7276" id="Stroke-11" stroke="#333333" stroke-width="4" stroke-linecap="round"></path>
                </g>
            </g>
        </g>
    </g>
</svg>