<?xml version="1.0" encoding="UTF-8"?>
<svg width="104px" height="104px" viewBox="0 0 104 104" version="1.1" xmlns="http://www.w3.org/2000/svg" xmlns:xlink="http://www.w3.org/1999/xlink">
    <!-- Generator: Sketch 52.2 (67145) - http://www.bohemiancoding.com/sketch -->
    <title>超载打包</title>
    <desc>Created with Sketch.</desc>
    <g id="最终" stroke="none" stroke-width="1" fill="none" fill-rule="evenodd">
        <g id="T1产品" transform="translate(-1456.000000, -2252.000000)">
            <g id="图标" transform="translate(0.000000, 2138.000000)">
                <g id="超载打包" transform="translate(1456.000000, 114.000000)">
                    <path d="M52,0 C23.281,0 0,23.281 0,52 C0,80.719 23.281,104 52,104 C80.719,104 104,80.719 104,52 C104,23.281 80.719,0 52,0 M52,0.5 C80.397,0.5 103.5,23.603 103.5,52 C103.5,80.397 80.397,103.5 52,103.5 C23.603,103.5 0.5,80.397 0.5,52 C0.5,23.603 23.603,0.5 52,0.5" id="Fill-1" fill="#333333"></path>
                    <path d="M63,40.9951 L70.213,32.9941 C70.842,32.2961 72,32.7411 72,33.6811 L72,73.0001 L32,73.0001 L32,33.6811 C32,32.7411 33.158,32.2961 33.787,32.9941 L41,40.9951" id="Stroke-3" stroke="#333333" stroke-width="4" stroke-linecap="round" stroke-linejoin="round"></path>
                    <path d="M67.8125,54.6045 C67.8125,55.5595 67.0385,56.3335 66.0835,56.3335 C65.1275,56.3335 64.3545,55.5595 64.3545,54.6045 C64.3545,53.6495 65.1275,52.8755 66.0835,52.8755 C67.0385,52.8755 67.8125,53.6495 67.8125,54.6045 Z" id="Stroke-5" stroke="#333333" stroke-width="2"></path>
                    <path d="M68,64 C68,66.209 66.209,68 64,68 C61.791,68 60,66.209 60,64 C60,61.791 61.791,60 64,60 C66.209,60 68,61.791 68,64 Z" id="Stroke-7" stroke="#333333" stroke-width="2"></path>
                    <path d="M38.8936,66.3584 C39.2476,67.4054 38.6876,68.5404 37.6416,68.8934 C36.5946,69.2484 35.4596,68.6874 35.1066,67.6414 C34.7516,66.5944 35.3126,65.4604 36.3586,65.1064 C37.4056,64.7524 38.5396,65.3124 38.8936,66.3584 Z" id="Stroke-9" stroke="#333333" stroke-width="2"></path>
                    <path d="M39.541,47.7246 C40.245,48.5766 40.126,49.8366 39.275,50.5406 C38.424,51.2456 37.163,51.1256 36.459,50.2756 C35.755,49.4236 35.874,48.1626 36.725,47.4586 C37.576,46.7546 38.837,46.8736 39.541,47.7246 Z" id="Stroke-11" stroke="#333333" stroke-width="2"></path>
                    <path d="M58.0625,39.6133 L61.0185,28.5813 C61.1615,28.0473 60.8445,27.4993 60.3115,27.3563 L55.4815,26.0613 C54.9485,25.9193 54.3995,26.2353 54.2565,26.7693 L51.2635,37.9403 C51.1235,38.4643 50.7365,38.8853 50.2275,39.0723 L46.1145,40.5733 C45.6055,40.7593 45.2185,41.1813 45.0785,41.7053 L39.6135,62.0993 C39.0305,64.2783 40.3225,66.5163 42.5005,67.1003 L51.0335,69.3863 C53.2115,69.9703 55.4505,68.6773 56.0345,66.5003 L61.5045,46.0823 C61.6415,45.5713 61.5275,45.0253 61.1975,44.6123 L58.3705,41.0833 C58.0405,40.6703 57.9245,40.1243 58.0625,39.6133 Z" id="Stroke-13" stroke="#333333" stroke-width="2" stroke-linecap="round" stroke-linejoin="round"></path>
                    <path d="M53.7393,28.7012 L60.5013,30.5132" id="Stroke-15" stroke="#333333" stroke-width="2" stroke-linecap="round" stroke-linejoin="round"></path>
                </g>
            </g>
        </g>
    </g>
</svg>