<?xml version="1.0" encoding="UTF-8"?>
<svg width="14px" height="14px" viewBox="0 0 14 14" version="1.1" xmlns="http://www.w3.org/2000/svg" xmlns:xlink="http://www.w3.org/1999/xlink">
    <!-- Generator: Sketch 52.2 (67145) - http://www.bohemiancoding.com/sketch -->
    <title>Shape</title>
    <desc>Created with Sketch.</desc>
    <g id="最终" stroke="none" stroke-width="1" fill="none" fill-rule="evenodd">
        <g id="T1产品" transform="translate(-1695.000000, -18.000000)" fill="#FFFFFF" fill-rule="nonzero" stroke="#313131" stroke-width="0.2">
            <g id="导航">
                <g id="Group-2">
                    <g transform="translate(1040.000000, 15.000000)">
                        <g id="Group-18" transform="translate(485.000000, 0.000000)">
                            <path d="M182.523474,7.66532488 C182.221811,6.95211814 181.790055,6.31167939 181.240185,5.76180899 C180.690328,5.2119386 180.049889,4.78018276 179.336683,4.4785193 C178.598051,4.16609798 177.813698,4.00769693 177.00539,4.00769693 C176.197081,4.00769693 175.412728,4.16609798 174.674097,4.4785193 C173.96089,4.78018276 173.320451,5.2119386 172.770581,5.76180899 C172.22071,6.31167939 171.788954,6.95210427 171.487291,7.66532488 C171.17487,8.40395675 171.016469,9.18830949 171.016469,9.99661786 C171.016469,10.8049262 171.17487,11.589279 171.487291,12.3279108 C171.788954,13.0411037 172.22071,13.6815563 172.770581,14.2314129 C173.320451,14.7812833 173.960876,15.213053 174.674097,15.5147026 C175.412728,15.82711 176.197081,15.9855249 177.00539,15.9855249 C177.813698,15.9855249 178.598051,15.82711 179.336683,15.5147026 C180.049875,15.2130391 180.690328,14.7812833 181.240185,14.2314129 C181.790055,13.6815563 182.221825,13.0411176 182.523474,12.3279108 C182.835882,11.589279 182.994297,10.8049262 182.994297,9.99661786 C182.994297,9.18830949 182.835882,8.40395675 182.523474,7.66532488 Z M177.449012,8.11933117 C177.692589,8.11596241 177.935542,8.1098626 178.17733,8.1003663 C178.598999,8.08379013 179.020233,8.05754479 179.440698,8.02165099 C179.581507,8.49824045 179.671424,9.010292 179.709492,9.55298125 L177.449012,9.55298125 L177.449012,8.11933117 Z M177.449012,7.23112912 L177.449012,5.17173529 C177.693241,5.34053374 177.994835,5.58548282 178.295694,5.92307973 C178.62037,6.28740491 178.893323,6.70133265 179.110629,7.15716889 C178.529248,7.20079641 177.972224,7.22347663 177.449012,7.23112912 Z M176.561767,5.22424913 L176.561767,7.23032505 C176.083473,7.22254879 175.605455,7.20263018 175.128172,7.17058848 C175.076484,7.16710644 175.024807,7.16347426 174.97314,7.15969199 C175.183791,6.71724762 175.446915,6.3141609 175.758851,5.95759912 C176.040053,5.63618058 176.323389,5.39627771 176.561767,5.22424913 Z M175.049166,8.0545068 C175.552736,8.08875005 176.057103,8.11004173 176.561767,8.11836075 L176.561767,9.55298125 L174.375525,9.55298125 C174.413538,9.01122084 174.503177,8.49993176 174.64357,8.02407705 C174.774619,8.0348349 174.909882,8.04503822 175.049166,8.0545068 Z M173.486352,9.55298125 L171.923012,9.55298125 C171.9773,8.91864232 172.147707,8.30836991 172.424014,7.7469376 C172.704841,7.79654017 173.156491,7.86836547 173.746662,7.93604566 C173.609388,8.44481163 173.522327,8.98524118 173.486352,9.55298125 Z M173.474444,10.4402267 C173.501824,10.9828883 173.609083,11.5249121 173.794698,12.0594359 C173.183427,12.1284192 172.716181,12.2024904 172.427494,12.2534099 C172.149121,11.6900091 171.977522,11.0772413 171.923012,10.4402129 L173.474444,10.4402129 L173.474444,10.4402267 Z M174.363048,10.4402267 L176.561767,10.4402267 L176.561767,11.8826661 C176.057562,11.8910118 175.552276,11.9121947 175.049166,11.9464507 C174.932576,11.9543944 174.81887,11.9628371 174.708006,11.9716956 C174.509457,11.4653696 174.39388,10.9521535 174.363048,10.4402267 Z M176.561767,12.7706741 L176.561767,14.5966253 C176.326453,14.3765191 176.054734,14.0980765 175.7849,13.7685064 C175.534475,13.4626285 175.315048,13.1488486 175.128075,12.8304106 C175.60539,12.7983662 176.083441,12.7784475 176.561767,12.7706741 Z M177.449012,14.6652898 L177.449012,12.7698423 C177.925727,12.7768155 178.430278,12.796224 178.955666,12.832601 C178.76897,13.1502765 178.549987,13.4633217 178.30013,13.7684925 C178.00142,14.1333722 177.70038,14.4355764 177.449012,14.6652898 Z M178.17733,11.9006051 C177.934649,11.8911177 177.691856,11.8847216 177.449012,11.8814184 L177.449012,10.4402267 L179.721997,10.4402267 C179.691123,10.952819 179.575296,11.4667282 179.376262,11.9737058 C178.977194,11.9406623 178.577456,11.9162896 178.17733,11.9006051 Z M180.610615,10.4402267 L182.087767,10.4402267 C182.033313,11.0765204 181.862033,11.6886227 181.584228,12.251483 C181.15395,12.1781995 180.721846,12.1160761 180.28835,12.0651753 C180.475199,11.5287938 180.583138,10.9848291 180.610615,10.4402267 Z M180.598706,9.55298125 C180.562592,8.98305079 180.474991,8.44062494 180.336816,7.93013993 C180.755236,7.88016641 181.17234,7.81972698 181.587735,7.74887845 C181.863475,8.30978396 182.033548,8.91937707 182.087781,9.55298125 L180.598706,9.55298125 Z M180.612805,6.3891886 C180.782537,6.55895697 180.940247,6.74033325 181.084792,6.93200262 C180.738696,6.98553498 180.391496,7.03166379 180.043429,7.07035746 C179.772694,6.42176714 179.408147,5.83777939 178.958064,5.33277035 C178.933435,5.30514674 178.908544,5.27775643 178.883397,5.2506031 C179.52367,5.50378691 180.111303,5.88768695 180.612805,6.3891886 Z M175.242807,5.20657354 C175.203583,5.2480654 175.164969,5.29013091 175.12698,5.33275648 C174.675705,5.83911026 174.310381,6.42483091 174.039425,7.07550071 C173.590853,7.02720129 173.214841,6.97507561 172.927235,6.93036676 C173.071446,6.73930652 173.228737,6.55847981 173.397974,6.3891886 C173.929462,5.85770082 174.557687,5.45824627 175.242807,5.20657354 Z M173.397974,13.6040194 C173.230755,13.4367313 173.075196,13.25818 172.932392,13.0696203 C173.244675,13.0211268 173.660613,12.9640659 174.161033,12.9125779 C174.413746,13.4053041 174.733722,13.887938 175.115751,14.3516901 C175.273472,14.5429688 175.438698,14.7279331 175.611042,14.9061492 C174.782618,14.6722075 174.023371,14.2294304 173.397974,13.6040194 Z M178.503088,14.8758997 C178.664968,14.7070293 178.820479,14.5321661 178.969294,14.3516762 C179.350102,13.8894213 179.669206,13.4083818 179.921544,12.9173053 C180.308668,12.9584429 180.694765,13.0087342 181.07951,13.068137 C180.936402,13.2572411 180.780466,13.4362858 180.612805,13.6040055 C180.013498,14.2033399 179.291308,14.6350541 178.503088,14.8758997 Z" id="Shape"></path>
                        </g>
                    </g>
                </g>
            </g>
        </g>
    </g>
</svg>